HIERARCHY
ROOT Hips
{
	OFFSET 0.00000 0.00000 0.00000
	CHANNELS 6 Xposition Yposition Zposition Zrotation Yrotation Xrotation 
	JOINT LHipJoint
	{
		OFFSET 0 0 0
		CHANNELS 3 Zrotation Yrotation Xrotation
		JOINT LeftUpLeg
		{
			OFFSET 1.37959 -1.78713 0.86582
			CHANNELS 3 Zrotation Yrotation Xrotation
			JOINT LeftLeg
			{
				OFFSET 2.54611 -6.99539 0.00000
				CHANNELS 3 Zrotation Yrotation Xrotation
				JOINT LeftFoot
				{
					OFFSET 2.59951 -7.14211 0.00000
					CHANNELS 3 Zrotation Yrotation Xrotation
					JOINT LeftToeBase
					{
						OFFSET 0.18493 -0.50810 1.96120
						CHANNELS 3 Zrotation Yrotation Xrotation
						End Site
						{
							OFFSET 0.00000 -0.00000 1.02054
						}
					}
				}
			}
		}
	}
	JOINT RHipJoint
	{
		OFFSET 0 0 0
		CHANNELS 3 Zrotation Yrotation Xrotation
		JOINT RightUpLeg
		{
			OFFSET -1.33564 -1.78713 0.86582
			CHANNELS 3 Zrotation Yrotation Xrotation
			JOINT RightLeg
			{
				OFFSET -2.52705 -6.94302 0.00000
				CHANNELS 3 Zrotation Yrotation Xrotation
				JOINT RightFoot
				{
					OFFSET -2.55964 -7.03257 0.00000
					CHANNELS 3 Zrotation Yrotation Xrotation
					JOINT RightToeBase
					{
						OFFSET -0.25804 -0.70896 2.12109
						CHANNELS 3 Zrotation Yrotation Xrotation
						End Site
						{
							OFFSET -0.00000 -0.00000 1.11821
						}
					}
				}
			}
		}
	}
	JOINT LowerBack
	{
		OFFSET 0 0 0
		CHANNELS 3 Zrotation Yrotation Xrotation
		JOINT Spine
		{
			OFFSET -0.02031 2.24248 -0.18900
			CHANNELS 3 Zrotation Yrotation Xrotation
			JOINT Spine1
			{
				OFFSET 0.08342 2.24689 -0.03799
				CHANNELS 3 Zrotation Yrotation Xrotation
				JOINT Neck
				{
					OFFSET 0 0 0
					CHANNELS 3 Zrotation Yrotation Xrotation
					JOINT Neck1
					{
						OFFSET -0.11607 1.55844 0.24628
						CHANNELS 3 Zrotation Yrotation Xrotation
						JOINT Head
						{
							OFFSET 0.06877 1.60174 -0.17013
							CHANNELS 3 Zrotation Yrotation Xrotation
							End Site
							{
								OFFSET 0.03358 1.61266 -0.08543
							}
						}
					}
				}
				JOINT LeftShoulder
				{
					OFFSET 0 0 0
					CHANNELS 3 Zrotation Yrotation Xrotation
					JOINT LeftArm
					{
						OFFSET 3.47537 0.55866 -0.72348
						CHANNELS 3 Zrotation Yrotation Xrotation
						JOINT LeftForeArm
						{
							OFFSET 5.38154 -0.00000 0.00000
							CHANNELS 3 Zrotation Yrotation Xrotation
							JOINT LeftHand
							{
								OFFSET 3.33312 -0.00000 0.00000
								CHANNELS 3 Zrotation Yrotation Xrotation
								JOINT LeftFingerBase
								{
									OFFSET 0 0 0
									CHANNELS 3 Zrotation Yrotation Xrotation
									JOINT LeftHandIndex1
									{
										OFFSET 0.71079 -0.00000 0.00000
										CHANNELS 3 Zrotation Yrotation Xrotation
										End Site
										{
											OFFSET 0.57306 -0.00000 0.00000
										}
									}
								}
								JOINT LThumb
								{
									OFFSET 0 0 0
									CHANNELS 3 Zrotation Yrotation Xrotation
									End Site
									{
										OFFSET 0.58181 -0.00000 0.58181
									}
								}
							}
						}
					}
				}
				JOINT RightShoulder
				{
					OFFSET 0 0 0
					CHANNELS 3 Zrotation Yrotation Xrotation
					JOINT RightArm
					{
						OFFSET -3.27844 0.90739 -0.35708
						CHANNELS 3 Zrotation Yrotation Xrotation
						JOINT RightForeArm
						{
							OFFSET -5.16954 -0.00000 0.00000
							CHANNELS 3 Zrotation Yrotation Xrotation
							JOINT RightHand
							{
								OFFSET -3.38287 -0.00000 0.00000
								CHANNELS 3 Zrotation Yrotation Xrotation
								JOINT RightFingerBase
								{
									OFFSET 0 0 0
									CHANNELS 3 Zrotation Yrotation Xrotation
									JOINT RightHandIndex1
									{
										OFFSET -0.81797 -0.00000 0.00000
										CHANNELS 3 Zrotation Yrotation Xrotation
										End Site
										{
											OFFSET -0.65947 -0.00000 0.00000
										}
									}
								}
								JOINT RThumb
								{
									OFFSET 0 0 0
									CHANNELS 3 Zrotation Yrotation Xrotation
									End Site
									{
										OFFSET -0.66953 -0.00000 0.66953
									}
								}
							}
						}
					}
				}
			}
		}
	}
}
MOTION
Frames: 10
Frame Time: .0083333
-4.2199 17.5956 8.8016 -185.5680 -24.1942 -167.5460 0.0000 0.0000 0.0000 -25.7910 -2.3102 8.4396 0.3150 3.6080 9.9763 -2.0245 -25.1903 2.1358 1.1219 6.7284 18.9131 0.0000 0.0000 0.0000 15.5710 7.2345 -35.8368 -1.1009 -6.6671 18.7327 0.4473 -12.0119 -7.0915 -0.1045 -2.0845 5.7393 -7.2547 -3.3606 6.1497 0.4560 -5.1447 -2.9599 5.0856 -2.2565 -5.8869 -14.5216 -8.1274 -12.5386 5.8479 -9.2060 11.3410 3.2755 -4.6810 6.4514 -0.0000 0.0000 0.0000 -78.7796 0.5717 19.0183 28.4850 -39.5589 -10.4311 -0.0000 -0.0000 4.9748 4.6785 34.2336 2.6360 -7.1250 0.0000 -0.0000 -33.1218 61.1644 -13.8951 -0.0000 0.0000 0.0000 12.0089 25.8072 -61.8008 -73.5328 58.9502 -45.7892 0.0000 -0.0000 -27.6543 -41.2089 18.7560 -15.7259 7.1250 -0.0000 -0.0000 -8.2277 -5.8968 -7.4176
-4.2344 17.6149 8.6317 -185.4770 -24.6772 -167.8120 0.0000 0.0000 0.0000 -25.3341 -2.2816 9.5576 0.2840 3.4271 9.4702 -2.0362 -24.9909 3.1834 1.1002 6.6650 18.7265 0.0000 0.0000 0.0000 15.7798 7.2539 -35.3605 -1.1649 -6.8515 19.2762 0.6254 -13.8471 -5.3155 -0.3170 -3.6192 10.0078 -7.1743 -3.3153 6.4628 0.5676 -5.0836 -2.8442 5.1720 -2.2238 -5.9470 -14.3022 -8.3381 -12.8479 5.4252 -9.4225 11.3202 3.0686 -4.8010 6.4867 -0.0000 0.0000 0.0000 -79.1115 0.6659 18.5125 28.1022 -39.2102 -10.1882 -0.0000 -0.0000 4.9536 4.6496 34.2481 2.6206 -7.1250 0.0000 -0.0000 -33.1658 61.1693 -13.9198 -0.0000 0.0000 0.0000 9.5448 26.9358 -62.8294 -71.1238 58.6099 -43.7290 0.0000 -0.0000 -26.5501 -40.1094 18.0689 -14.6422 7.1250 -0.0000 -0.0000 -7.6839 -7.0499 -6.7452
-4.2522 17.6338 8.4639 -185.1970 -24.9689 -168.0310 0.0000 0.0000 0.0000 -24.8804 -2.7353 10.5326 0.2683 3.3318 9.2040 -1.9200 -24.1118 4.0609 0.8517 5.8860 16.4539 0.0000 0.0000 0.0000 16.1375 7.4146 -34.9586 -1.2188 -7.0026 19.7230 0.6962 -14.6279 -4.2795 -0.5857 -4.9003 13.6245 -6.9848 -3.2532 6.2232 0.7442 -4.9288 -2.4853 5.2014 -2.1798 -5.4474 -14.3863 -8.5632 -13.2256 5.4497 -9.6426 11.1096 3.0512 -4.8955 6.5086 -0.0000 -0.0000 0.0000 -79.5230 0.2169 17.8718 27.5044 -38.6560 -9.8126 -0.0000 -0.0000 5.1673 4.6865 34.4785 2.6570 -7.1250 0.0000 -0.0000 -33.3731 61.3685 -14.1768 -0.0000 -0.0000 0.0000 6.7421 28.3355 -64.3789 -68.3772 58.1575 -41.3900 0.0000 -0.0000 -25.3386 -39.4566 17.8759 -14.1788 7.1250 -0.0000 -0.0000 -7.3134 -7.4605 -6.3553
-4.2779 17.6479 8.2912 -184.5600 -25.0242 -168.4220 0.0000 0.0000 0.0000 -24.1758 -2.9647 11.2558 0.2782 3.3927 9.3741 -1.8225 -23.3699 4.9002 0.7766 5.6266 15.7047 0.0000 0.0000 0.0000 16.9063 7.5649 -34.5029 -1.2611 -7.1187 20.0674 0.6569 -14.2283 -4.0488 -0.8043 -5.7237 15.9849 -6.3619 -3.0882 6.1541 0.8913 -4.6331 -2.3868 4.9733 -2.0566 -5.3758 -14.7565 -8.7338 -13.1383 5.8388 -9.8764 11.2246 3.2051 -4.9972 6.5942 0.0000 0.0000 0.0000 -79.6830 0.4138 17.3823 27.0322 -38.2099 -9.5190 -0.0000 -0.0000 5.5955 4.2048 35.2180 2.4278 -7.1250 0.0000 -0.0000 -34.6618 61.8536 -15.1994 0.0000 0.0000 0.0000 4.3059 29.5346 -65.4849 -65.5086 57.6075 -38.9602 0.0000 -0.0000 -24.3279 -38.7173 17.3579 -13.4504 7.1250 -0.0000 -0.0000 -6.9444 -8.2788 -5.9169
-4.3061 17.6614 8.1241 -184.2680 -24.9258 -168.5880 0.0000 0.0000 0.0000 -23.8831 -3.2541 11.5545 0.3240 3.6585 10.1178 -1.7225 -22.6287 5.7611 0.8849 5.9965 16.7743 0.0000 0.0000 0.0000 17.2502 7.8524 -34.0969 -1.2944 -7.2084 20.3341 0.5854 -13.4571 -3.7626 -1.1237 -6.7335 18.9282 -5.9351 -2.8186 6.1027 0.8129 -4.2368 -2.3743 4.6142 -1.8754 -5.4178 -14.7210 -8.9148 -12.8358 6.0205 -10.2047 11.2470 3.2281 -5.1456 6.5929 0.0000 -0.0000 0.0000 -79.5935 0.8514 17.2976 26.6112 -37.8059 -9.2598 -0.0000 -0.0000 4.7033 5.6052 35.5450 3.2654 -7.1250 0.0000 -0.0000 -33.6257 62.4753 -15.1801 0.0000 -0.0000 0.0000 2.2702 30.5810 -66.7211 -62.8368 57.0197 -36.7114 0.0000 -0.0000 -23.2202 -37.2957 16.2947 -12.0632 7.1250 -0.0000 -0.0000 -6.2242 -9.8980 -5.0926
-4.3330 17.6710 7.9652 -184.1350 -24.7042 -168.4390 0.0000 0.0000 0.0000 -23.7456 -3.4933 11.1234 0.4094 4.1076 11.3796 -1.6719 -22.2240 6.6624 0.9291 6.1404 17.1923 0.0000 0.0000 0.0000 17.4188 8.2430 -33.9068 -1.3276 -7.2967 20.5974 0.5085 -12.6046 -3.0670 -1.4354 -7.5749 21.4303 -5.5907 -2.4966 5.8377 0.6325 -3.7715 -2.3487 4.1740 -1.6653 -5.3271 -14.2601 -9.1284 -12.6512 5.8985 -10.5755 10.9458 3.0845 -5.3105 6.4707 -0.0000 -0.0000 0.0000 -79.5695 0.8992 17.0071 26.0772 -37.2849 -8.9344 -0.0000 -0.0000 4.3346 6.2794 36.1421 3.7132 -7.1250 0.0000 -0.0000 -33.6353 63.1383 -15.7080 -0.0000 -0.0000 0.0000 0.4235 31.5730 -68.1451 -60.4048 56.4168 -34.6781 0.0000 -0.0000 -21.7152 -35.9193 15.5901 -11.0167 7.1250 -0.0000 -0.0000 -5.4475 -11.0360 -4.3240
-4.3589 17.6756 7.7959 -183.5510 -24.5778 -168.6180 0.0000 0.0000 0.0000 -23.1457 -3.8028 10.9017 0.5056 4.5580 12.6519 -1.6102 -21.7873 7.4521 0.9054 6.0636 16.9689 0.0000 0.0000 0.0000 18.2121 8.3873 -33.5763 -1.3864 -7.4500 21.0556 0.4402 -11.7388 -2.9050 -1.5601 -7.8825 22.3576 -4.9744 -2.2729 5.6034 0.6938 -3.3994 -2.2127 3.8421 -1.5096 -5.1192 -13.9264 -9.3131 -12.6567 5.6853 -10.8387 10.5945 2.9387 -5.4323 6.3534 0.0000 0.0000 0.0000 -79.8201 0.6882 15.9219 25.2075 -36.4154 -8.4128 -0.0000 -0.0000 5.0500 5.4902 35.4693 3.1923 -7.1250 0.0000 -0.0000 -33.6558 62.3839 -15.1228 0.0000 0.0000 0.0000 -1.5956 32.6397 -69.4297 -57.7792 55.6885 -32.4999 0.0000 -0.0000 -20.2529 -35.1810 15.8244 -10.8810 7.1250 -0.0000 -0.0000 -4.9311 -10.9098 -3.9237
-4.3790 17.6946 7.6350 -183.1980 -24.6233 -168.4220 0.0000 0.0000 0.0000 -22.7168 -4.5231 10.4511 0.6082 4.9919 13.8855 -1.4742 -20.8975 8.6359 0.9250 6.1272 17.1541 0.0000 0.0000 0.0000 18.8175 8.2489 -33.6866 -1.4687 -7.6586 21.6818 0.3940 -11.0612 -3.4261 -1.5973 -7.9715 22.6277 -4.4833 -2.1836 5.2510 0.7129 -3.2271 -2.2873 3.5563 -1.4425 -5.0376 -13.9053 -9.4372 -12.5437 5.7453 -11.0317 10.5098 2.9366 -5.5205 6.3286 0.0000 -0.0000 0.0000 -79.9769 0.8352 14.9432 24.3981 -35.5824 -7.9370 -0.0000 -0.0000 5.1843 5.6228 34.7273 3.2101 -7.1250 0.0000 -0.0000 -32.7004 61.8062 -14.1957 0.0000 -0.0000 0.0000 -3.4760 33.7297 -70.3578 -55.0099 54.8265 -30.2240 0.0000 -0.0000 -19.0425 -33.5650 13.6615 -8.9066 7.1250 -0.0000 -0.0000 -4.1662 -13.7489 -3.0649
-4.4088 17.7132 7.4651 -183.0470 -24.0170 -168.5160 0.0000 0.0000 0.0000 -22.5657 -4.3493 10.0973 0.7273 5.4492 15.1944 -1.3620 -20.2389 10.0389 0.8927 6.0220 16.8484 0.0000 0.0000 0.0000 19.3291 8.0848 -33.3568 -1.5520 -7.8630 22.2987 0.3281 -10.0928 -3.7686 -1.6622 -8.1238 23.0907 -4.4186 -1.9074 4.8867 0.6981 -2.8339 -2.1925 3.4516 -1.2593 -4.7704 -14.0098 -9.4976 -12.1240 5.9344 -11.1767 10.3025 3.0146 -5.5863 6.2243 0.0000 0.0000 0.0000 -80.2078 1.1798 14.1702 23.8069 -34.9594 -7.5956 -0.0000 -0.0000 4.7978 6.8574 34.9845 3.9444 -7.1250 0.0000 -0.0000 -31.7285 62.3314 -14.1193 0.0000 0.0000 0.0000 -5.3527 34.8909 -71.3376 -52.3935 53.9164 -28.0973 0.0000 -0.0000 -17.6291 -31.8148 12.8006 -7.8263 7.1250 -0.0000 -0.0000 -3.0890 -15.0255 -2.1858
-4.4265 17.7316 7.2905 -183.0400 -23.7297 -168.5670 0.0000 0.0000 0.0000 -22.3349 -4.1775 9.6490 0.8559 5.8999 16.4942 -1.2724 -19.9056 11.9574 0.8266 5.8005 16.2066 0.0000 0.0000 0.0000 19.6603 7.9122 -32.9950 -1.6356 -8.0619 22.9022 0.2734 -9.2427 -4.0246 -1.7321 -8.2842 23.5807 -4.6942 -1.7250 4.6001 0.7446 -2.5909 -2.1211 3.6213 -1.1374 -4.5419 -13.9489 -9.4961 -11.4265 6.0542 -11.2866 9.8114 3.0672 -5.6359 5.9669 -0.0000 -0.0000 0.0000 -80.5029 1.5776 13.1652 23.2821 -34.3958 -7.2970 -0.0000 -0.0000 5.0171 7.1842 35.4606 4.1824 -7.1250 0.0000 -0.0000 -31.9242 62.8122 -14.5773 -0.0000 -0.0000 0.0000 -7.1253 35.9600 -72.1098 -49.9766 52.9861 -26.1555 0.0000 -0.0000 -16.3863 -29.8352 11.8285 -6.7050 7.1250 -0.0000 -0.0000 -1.8328 -16.4112 -1.2409
